<svg id="Layer_1" data-name="Layer 1" xmlns="http://www.w3.org/2000/svg" viewBox="0 0 1367.97 2305.91"><defs><style>.cls-1{fill:#181111;}.cls-2{fill:#911a20;}.cls-3{fill:#8f1a1f;}.cls-4{fill:#f8f8f8;}.cls-5{fill:#f8f8f9;}.cls-6{fill:#f5f5f5;}.cls-7{fill:#f4f4f4;}.cls-8{fill:#ededed;}.cls-9{fill:#b9babb;}.cls-10{fill:#6f7272;}.cls-11{fill:#fff;}.cls-12{fill:#1a1312;}.cls-13{fill:#fbfbfb;}</style></defs><path class="cls-1" d="M1632.18,363.89c11.83-6.35,23.53-13,35.59-18.86,3.46-1.69,8.76-2.83,11.85-1.36,5.17,2.45,3.47,7.85,2.12,12.7-2.91,10.45-5.41,21-7.87,31.58-.65,2.84-.56,5.84-.91,10,6.68-2.69,12.09-5.38,17.8-7,7-2,14.25-3.95,21.49-4.51,8.73-.68,10.68,1.52,11.21,10.2.46,7.35.74,14.75.48,22.11-.92,26.93-2.11,53.85-3.14,80.77-.09,2.52.31,5.06.55,8.57,13.34-4.54,25.87-9.14,38.61-13a102.6,102.6,0,0,1,21.63-4.3c9.21-.72,10.73,1.42,11.62,11,2.71,29,.48,58-1.75,88.53,10.32-2.24,20.25-4.46,30.22-6.53,6.79-1.41,13.58-3.32,20.46-3.76,11-.7,13.9,4.34,9.11,14.07a20.27,20.27,0,0,0-2.14,8.43c-.21,15.49-.1,31-.1,47.54,15.15-2.16,30.46-4.53,45.83-6.47a244.68,244.68,0,0,1,27.27-2.23c11.7-.15,13.82,3.24,12.85,14.79-.58,6.83.9,13.81.89,20.73,0,33-.6,66.08-.15,99.11.16,12,2.65,24,4,35.54,1.2.93,1.81,1.8,2.55,1.92,30,4.84,57,17.92,84,30.91a26.4,26.4,0,0,1,6.61,4.08c14.64,13.55,30,26.48,43.47,41.07,15.32,16.55,29.16,34.47,43.24,52.12,4,5,6.53,11.1,9.77,16.68,1.49,2.57,2.62,5.53,4.67,7.55,30.7,30.35,52.79,66.3,71.31,105.08,19.22,40.26,34,81.85,41.68,125.65,15.31,87.31,10.23,173.24-21.95,256.52-11.24,29.1-24.33,57.5-36.47,86.27-5.07,12-9.42,24.31-14.88,36.13-9.27,20.07-18.67,40.11-28.94,59.68-8.39,16-21.31,28.5-34.68,40.38-9.09,8.07-18.74,15.5-27.89,23.51-37.79,33.09-81.79,55.17-128.14,73.43-44.5,17.54-90.14,31.38-136.34,43.42-57.63,15-116.16,25.49-175.09,34.09-45.54,6.65-90.83,15-136.3,22.13-38.62,6.08-77.34,11.54-116,17.3-3.79.57-7.56,1.28-12.61,2.14q24.93,279.27,49.74,557.28l2.2.51c1-4.08,2.19-8.13,3-12.25.95-4.68,1.71-9.41,2.36-14.14,5.43-39.61,12-79.1,15.81-118.86,2.61-27.16,2.08-54.7,1.64-82-.69-42.16-2.11-84.32-4-126.45-1.54-34.73-4.32-69.4-6.22-104.11a128.17,128.17,0,0,1,1-23.33c1.08-8.51,4.74-12.39,10.72-12.77,7.59-.48,10.93,4.91,12.74,10.86,2.27,7.44,4.55,15.12,5,22.81,2.58,44.25,5.1,88.51,6.69,132.8,1.27,35.19.64,70.45,1.82,105.64,1.83,54.59-4.46,108.52-12.11,162.34-4,28.36-9,56.6-14.11,84.8-3.45,19.2-8.27,38.15-11.56,57.36-4.11,24-19.31,39.88-38.7,51.28-30.52,17.94-63.64,30.57-98.87,34.84-24.93,3-50.35,3.44-75.49,2.84-26.87-.64-53.92-2.19-79.64-11.64-3.26-1.2-6.78-1.85-9.81-3.44-21.49-11.3-43.61-21.53-62.22-37.66-4.44-3.84-7-7.25-7.68-13.83-4.18-42.71-9.31-85.33-14-128-2.16-19.44-4-38.91-6.21-58.34-7.56-66.48-15.46-132.93-22.75-199.44-6.82-62.21-12.81-124.51-19.59-186.72-4.19-38.44-9.45-76.76-13.75-115.18-5.18-46.22-9.85-92.49-14.76-138.73q-10-94-20.07-188c-7.2-66.1-14.68-132.17-22-198.25q-15.2-137.36-30.3-274.74-9.28-84.87-18.15-169.81a281.3,281.3,0,0,1-1-33.87,34.45,34.45,0,0,1,3.39-13.6c17.4-37,43.54-67.89,70.94-97.65,42.49-46.17,90.12-86.66,139.92-124.68.34-.27.66-.57,1-.85,44.61-37.56,94.87-67.38,141.07-102.82,28.2-21.63,58-41.39,88.39-59.91,57.07-34.8,115.1-68,172.62-102.1,11.58-6.86,22.54-14.77,34.07-21.72,16-9.65,32.48-18.47,51-22.57a113,113,0,0,1,11.55-1.89c20.74-2.36,28.35,11.35,29.19,26.75.34,6.42-.52,12.91-.82,19.36-.09,1.25-.17,2.5-.26,3.74ZM1310.5,812.09l26-5.49c7.67-1.36,15.38-2.51,23-4.12,41.65-8.82,83.5-17.06,126.06-18.9q93.75-4.05,187.63-5.15c28.19-.37,56.7.26,84.58,4,52.85,7.13,105.34,16.85,158,25.43a39.72,39.72,0,0,0,6.62,0c-8.31-48.49-1-96.81-4.75-145.11-5.32.28-10.14,0-14.78.84-51.28,8.94-103,15.88-153.67,27.58-93.8,21.68-187.14,45.4-280.27,69.82-47.3,12.4-93.71,28.18-140.53,42.44l-20.4,5.84-11.7,3.07c.19.84.38,1.69.56,2.53ZM2074.92,916a3.56,3.56,0,0,0,.25,1c.11.17.48.18.73.26l-1-1.21c-8.28-9.88-17-19.47-24.74-29.73-10.24-13.51-22-24.45-39.27-27.79a12.74,12.74,0,0,1-3.65-1.39c-23.92-13.16-50.3-18.85-76.57-24.53-29.62-6.4-59.49-11.61-89.21-17.55-48.55-9.71-97.47-16.33-147.06-16.32-72.51,0-145.12-3.14-217.43,5-31,3.47-61.84,7.71-92.61,12.52-24,3.75-47.71,8.76-71.49,13.51-45,9-90.27,17-134.86,27.77-23.4,5.64-44.45,5.4-66.78-4-23.46-9.91-47.37-19.4-73.11-22.64a115.07,115.07,0,0,1-23.88-5.39c-12.57-4.45-14.58-9-7.94-20.29,6.36-10.77,13.51-21.37,21.93-30.56C1043.12,758.4,1059,743,1075,727.76c9.08-8.64,19.31-16.07,28.85-24.24,19.76-16.93,38.78-34.76,59.22-50.8,27.3-21.42,55.42-41.82,83.63-62,24.31-17.42,49.2-34,73.91-50.9,25.44-17.36,50.64-35.1,76.55-51.73,44.21-28.35,89-55.86,133.35-83.93,23.85-15.08,47.48-30.52,71.08-46,4.2-2.75,7.78-6.41,11.35-9.41-5.43-11.67-5.61-12.33-15.38-9.73-10.38,2.77-21.09,5.66-30.39,10.78-28.52,15.67-56.52,32.28-84.55,48.81-34.78,20.51-69.67,40.85-104,62.08-33.2,20.54-66.17,41.51-98.44,63.45-26.54,18-51.29,38.74-78,56.57-41.92,28-81.23,59.34-119.69,91.8-11.28,9.51-22.57,19-33.38,29-21.93,20.32-43.91,40.61-65.15,61.65-13.84,13.71-26.92,28.28-39.38,43.27-10.44,12.55-19.47,26.26-29.51,40,31.93,22.11,64.56,38.68,100.37,48.81,17.61,5,35.65,6.64,53.78,8.77,28,3.29,55.53.87,83-2.23s52.17-14.41,75.76-29.29a161.4,161.4,0,0,1,48.6-20.6c19.64-4.58,40.37-4.74,60.66-6.31,9.51-.74,19.14,0,28.68-.48,26-1.33,51.93-3.15,77.91-4.4,23-1.09,46-1.51,69-2.52,37.7-1.66,75.39-4.8,113.09-5.09,70.75-.56,141.66-4.53,212.15,4.83,24.42,3.25,49,6.93,72.78,13.1,49.7,12.9,97.52,31.14,142.84,55.61C2060.53,910.3,2067.85,912.93,2074.92,916ZM1376.16,1865.9c6.15-.32,10.92-.2,15.57-.86,15-2.13,30-4.51,44.92-6.85,37.64-5.89,75.29-11.73,112.91-17.74,27.36-4.37,54.65-9.19,82-13.45,31.23-4.87,62.78-8,93.73-14.24,72.75-14.58,144.76-32.17,214.26-58.82,29.22-11.21,58.07-23.24,85.05-39.15s51.23-35.55,74.49-56.59c13.79-12.48,25.22-26.29,33-43,10.22-22,20.3-44.14,29.41-66.63,15.16-37.39,29.59-75.08,44.16-112.71,15.36-39.66,21.57-81.14,23.21-123.34.76-19.53.42-39.14-.31-58.68-.48-12.95-2.21-25.88-4-38.74a349,349,0,0,0-21.42-81.46c-15-38-29.93-75.69-53.39-109.66A310.07,310.07,0,0,0,2084,954.27c-27-20.9-57.45-35.49-88.45-49.4-62.88-28.23-128.79-43.62-197.25-48.5-26-1.85-52-2.15-78.09-2.57-45.16-.75-90.23,1.34-135.29,4.49-33.31,2.33-66.68,3.86-100,5.11-37.32,1.41-74.66,2.18-112,3.05-13.91.32-27.88-.58-41.73.32-15.44,1-30.78,3.41-47.42,5.35,1.22,15,2.07,28.77,3.48,42.44,3.07,29.72,6.62,59.39,9.59,89.12,3.06,30.59,5.71,61.23,8.46,91.86,1.09,12.09,1.79,24.21,3,36.28,2.2,22.41,4.9,44.77,6.88,67.2,2.25,25.47,3.74,51,5.9,76.48,3.26,38.42,6.83,76.82,10.23,115.22,1.07,12.09,1.91,24.2,3.07,36.28,2.28,23.71,4.9,47.39,7,71.11s3.57,47.55,5.82,71.28c4.08,43.11,8.57,86.19,12.81,129.29,1.18,12.07,2,24.18,3.14,36.26q3.52,37.51,7.24,75C1372.17,1828,1374.1,1846,1376.16,1865.9ZM915.87,868.56l-2.31,2.54c1.22,9.37,2.49,18.72,3.64,28.1,3.15,25.78,6.38,51.55,9.33,77.35,2.17,18.93,3.94,37.91,5.91,56.87,2.42,23.25,4.9,46.5,7.3,69.75,2,19.39,3.72,38.81,5.89,58.18,2.21,19.78,4.89,39.51,7.23,59.28,1.33,11.18,2.36,22.4,3.58,33.59,2.21,20.22,4.57,40.42,6.68,60.66s3.83,40.54,6,60.78c3,28.41,6.5,56.76,9.55,85.17,2.13,19.81,3.7,39.68,5.84,59.49,3.11,28.83,6.51,57.64,9.79,86.46l8.64,76.12c2.4,21.08,4.93,42.14,7.19,63.23,2.12,19.81,3.86,39.66,5.94,59.47,2.31,22,5.26,43.85,7,65.84.67,8.33,3.53,13.13,10.95,17.26,25.73,14.31,53.69,20.19,82.43,21,28.57.83,57.22-1,85.84-1.91,37.32-1.12,72.72-11.26,107.4-24,10.11-3.73,19.62-9.26,29.1-14.52,5.09-2.84,7.8-6.74,6.41-13.94-2.2-11.41-2.33-23.23-3.34-34.88q-5.24-60.21-10.45-120.4c-3.48-40.13-7-80.26-10.43-120.4-2.84-33.67-5.48-67.36-8.23-101-1-11.66-1.86-23.33-3-35-2.28-23.26-4.76-46.51-7.06-69.77-2.09-21.11-4-42.24-6.07-63.35-2.36-24.56-4.89-49.11-7.07-73.69-2.1-23.73-3.71-47.52-5.82-71.25-2.33-26.31-5-52.59-7.46-78.89-1-11.22-1.9-22.45-3-33.66-2.32-24.14-5.09-48.24-7-72.4-2.3-29-3.84-58-5.91-86.93-.25-3.53-1.73-7-3.19-12.53-53.23,36.11-110.71,46.46-172.29,44.23C1022.61,923.13,967.54,901.87,915.87,868.56Zm113.19,1038.86c0,7.74-.54,14.58.1,21.3,2.15,22.41,4.69,44.79,7.15,67.17q3.4,31,7,62c2,16.77,4.26,33.5,6.16,50.28,2.1,18.51,3.87,37.06,5.86,55.59,2.31,21.52,4.8,43,7,64.57,2.12,20.25,3.94,40.53,6,60.78,2.27,22,4.73,43.91,7.06,65.87,2,18.95,3.87,37.92,6,56.87,2.27,20.66,4.78,41.29,7.07,61.94,2,17.65,3.35,35.37,5.82,52.95.74,5.29,3.45,10.74,6.61,15.16,5.52,7.73,13.8,13.88,17.83,22.2,6.25,12.88,17.26,17.65,29.08,22.1a175.81,175.81,0,0,0,51.92,11c45.16,2.71,90.13,5.31,134.21-8.6,20.35-6.42,40.25-13.66,58.35-25.27,13.57-8.71,18.49-20.82,16.69-36.67-3.57-31.4-6.68-62.85-9.8-94.3q-4.05-40.72-7.71-81.49c-3.72-41.87-7.23-83.75-10.84-125.62-1.05-12.09-2-24.19-3.19-36.27-2.27-23.27-4.8-46.52-7-69.8-2.1-22.44-3.77-44.91-5.86-67.35-2.28-24.58-5-49.12-7.19-73.7-2.14-23.74-3.75-47.53-5.89-71.27-.45-5-2.21-9.83-3.57-15.62-3.72,1.35-6.17,2-8.39,3.08-48.74,24-100.88,34.32-154.59,36.31-28.11,1-56.43-.66-84.53-2.77-22.53-1.7-44.45-7.35-64.47-18.68C1034.27,1908.21,1032.05,1908.15,1029.06,1907.42Zm47.74-1084.9c5.51-3.35,10-6.62,15-9,21-10.29,42.37-19.9,63.21-30.53,74.16-37.82,147.84-76.61,222.32-113.79,59.32-29.62,119.43-57.67,179.42-85.92,43.13-20.3,86.45-40.2,130.12-59.29,10.7-4.68,16.27-10,14.67-21.84-.46-3.36.52-6.9.75-10.37,1.79-26.34,3.55-52.67,5.44-80.76-7.76,3-14.25,5.08-20.45,7.87-41.6,18.67-82.31,39.07-121.47,62.47-20.86,12.46-41.76,24.83-62.57,37.34-42.77,25.69-85.6,51.28-128.19,77.25-26.3,16-52.47,32.31-78.22,49.2q-58.23,38.21-115.73,77.52c-26.13,17.93-51.41,37.06-74.77,58.6a83.92,83.92,0,0,1-8.38,6.15c-12.33,8.82-22.73,19.64-34.15,30.9Zm698.82-307.94c-4,1.12-6.57,1.57-8.91,2.51-41.83,16.84-84,32.85-125.34,50.87-45.71,19.93-90.63,41.66-135.85,62.72-55.84,26-112,51.44-167.36,78.33-57.75,28-114.72,57.68-172.24,86.2-21,10.4-42.53,19.6-63.82,29.36-2.33,1.08-4.62,2.27-8,4l23.52,7.69c6.37-4.28,11.29-8.31,16.83-11.16,14.27-7.33,28.78-14.17,43.24-21.13,23.43-11.28,46.62-23.13,70.41-33.62,53.19-23.46,108.23-41.84,163.67-59.3,68.22-21.49,135.93-44.62,203.67-67.59,48.06-16.3,96.38-31.66,145.6-44.09,4.09-1,8-2.64,11.36-3.75C1773.47,568.18,1774.53,541.85,1775.62,514.58ZM1133.68,841.91c4.85.91,7.8,2.38,10.21,1.76,15-3.86,30.12-7.76,44.93-12.44,43-13.59,85.85-27.54,128.75-41.36,28.48-9.16,56.7-19.22,85.47-27.34,53.82-15.19,108-29,161.94-43.85,83.66-23,167.38-45.63,252.6-62.26,4.92-1,9.77-2.28,13.6-3.19V600.59c-13.72,3.21-27,5.6-39.8,9.43-68.16,20.35-136.37,40.56-204.26,61.78-52.57,16.44-104.56,34.72-157,51.43-47.11,15-94.86,28.31-140.34,47.71C1237.91,793,1187.09,817.49,1133.68,841.91ZM1030.16,810.1c9.55,7.4,13.94.11,18.32-3.59,20.19-17.1,39.41-35.35,60-52,28.33-22.92,57.25-45.14,86.49-66.89,17-12.68,35-24.12,52.89-35.67q62.85-40.62,126-80.8c28.87-18.44,57.6-37.12,86.79-55,63.22-38.8,127.05-76.55,193.32-109.2,1.36-11.2,2.66-21.87,4.18-34.37-5.13,2.58-9,4.26-12.54,6.35-33.31,19.52-66.84,38.68-99.8,58.78-54.09,33-108.35,65.73-161.51,100.17-47.69,30.88-94.52,63.17-140.79,96.16-65.1,46.43-127.7,96.06-185.26,151.78C1049.52,794.21,1039.94,801.68,1030.16,810.1Z" transform="translate(-887.31 -315.29)"/><path class="cls-2" d="M1376.16,1865.9c-2.06-19.87-4-37.91-5.78-56q-3.72-37.49-7.24-75c-1.14-12.08-2-24.19-3.14-36.26-4.24-43.1-8.73-86.18-12.81-129.29-2.25-23.73-3.68-47.54-5.82-71.28s-4.75-47.4-7-71.11c-1.16-12.08-2-24.19-3.07-36.28-3.4-38.4-7-76.8-10.23-115.22-2.16-25.48-3.65-51-5.9-76.48-2-22.43-4.68-44.79-6.88-67.2-1.18-12.07-1.88-24.19-3-36.28-2.75-30.63-5.4-61.27-8.46-91.86-3-29.73-6.52-59.4-9.59-89.12-1.41-13.67-2.26-27.4-3.48-42.44,16.64-1.94,32-4.35,47.42-5.35,13.85-.9,27.82,0,41.73-.32,37.33-.87,74.67-1.64,112-3.05,33.37-1.25,66.74-2.78,100-5.11,45.06-3.15,90.13-5.24,135.29-4.49,26,.42,52.13.72,78.09,2.57,68.46,4.88,134.37,20.27,197.25,48.5,31,13.91,61.44,28.5,88.45,49.4a310.07,310.07,0,0,1,65.75,69.73c23.46,34,38.39,71.67,53.39,109.66a349,349,0,0,1,21.42,81.46c1.75,12.86,3.48,25.79,4,38.74.73,19.54,1.07,39.15.31,58.68-1.64,42.2-7.85,83.68-23.21,123.34-14.57,37.63-29,75.32-44.16,112.71-9.11,22.49-19.19,44.61-29.41,66.63-7.74,16.69-19.17,30.5-33,43-23.26,21-47.5,40.66-74.49,56.59s-55.83,27.94-85.05,39.15c-69.5,26.65-141.51,44.24-214.26,58.82-31,6.21-62.5,9.37-93.73,14.24-27.38,4.26-54.67,9.08-82,13.45-37.62,6-75.27,11.85-112.91,17.74-15,2.34-29.93,4.72-44.92,6.85C1387.08,1865.7,1382.31,1865.58,1376.16,1865.9Zm135.6-383.49c6.8-.5,12-.32,17-1.33q61-12.43,122-25.27c27.71-5.79,55.12-12.72,78.13-30.26,33.25-25.35,53-56.38,43.34-100.85-7.25-33.34-24.84-57.84-55.71-72.13-12.14-5.62-25-9.73-37.84-13.76-35-11-70.51-13.12-106.48-5.2-21.12,4.65-42.26,9.17-63.39,13.7-8.38,1.8-12.4,7.88-11.17,17.19a626.2,626.2,0,0,1,5.85,85.5c-.15,31.62,1.14,63.28,2.68,94.88C1506.74,1457.17,1509.73,1469.33,1511.76,1482.41Z" transform="translate(-887.31 -315.29)"/><path class="cls-2" d="M915.87,868.56c51.67,33.31,106.74,54.57,169,56.82,61.58,2.23,119.06-8.12,172.29-44.23,1.46,5.56,2.94,9,3.19,12.53,2.07,29,3.61,58,5.91,86.93,1.92,24.16,4.69,48.26,7,72.4,1.08,11.21,1.93,22.44,3,33.66,2.47,26.3,5.13,52.58,7.46,78.89,2.11,23.73,3.72,47.52,5.82,71.25,2.18,24.58,4.71,49.13,7.07,73.69,2,21.11,4,42.24,6.07,63.35,2.3,23.26,4.78,46.51,7.06,69.77,1.14,11.64,2,23.31,3,35,2.75,33.67,5.39,67.36,8.23,101,3.39,40.14,7,80.27,10.43,120.4s7,80.26,10.45,120.4c1,11.65,1.14,23.47,3.34,34.88,1.39,7.2-1.32,11.1-6.41,13.94-9.48,5.26-19,10.79-29.1,14.52-34.68,12.79-70.08,22.93-107.4,24-28.62.86-57.27,2.74-85.84,1.91-28.74-.83-56.7-6.71-82.43-21-7.42-4.13-10.28-8.93-10.95-17.26-1.75-22-4.7-43.89-7-65.84-2.08-19.81-3.82-39.66-5.94-59.47-2.26-21.09-4.79-42.15-7.19-63.23l-8.64-76.12c-3.28-28.82-6.68-57.63-9.79-86.46-2.14-19.81-3.71-39.68-5.84-59.49-3-28.41-6.5-56.76-9.55-85.17-2.18-20.24-3.9-40.53-6-60.78s-4.47-40.44-6.68-60.66c-1.22-11.19-2.25-22.41-3.58-33.59-2.34-19.77-5-39.5-7.23-59.28-2.17-19.37-3.9-38.79-5.89-58.18-2.4-23.25-4.88-46.5-7.3-69.75-2-19-3.74-37.94-5.91-56.87-2.95-25.8-6.18-51.57-9.33-77.35-1.15-9.38-2.42-18.73-3.64-28.1Z" transform="translate(-887.31 -315.29)"/><path class="cls-2" d="M1029.06,1907.42c3,.73,5.21.79,6.92,1.76,20,11.33,41.94,17,64.47,18.68,28.1,2.11,56.42,3.81,84.53,2.77,53.71-2,105.85-12.32,154.59-36.31,2.22-1.09,4.67-1.73,8.39-3.08,1.36,5.79,3.12,10.65,3.57,15.62,2.14,23.74,3.75,47.53,5.89,71.27,2.21,24.58,4.91,49.12,7.19,73.7,2.09,22.44,3.76,44.91,5.86,67.35,2.18,23.28,4.71,46.53,7,69.8,1.17,12.08,2.14,24.18,3.19,36.27,3.61,41.87,7.12,83.75,10.84,125.62q3.62,40.77,7.71,81.49c3.12,31.45,6.23,62.9,9.8,94.3,1.8,15.85-3.12,28-16.69,36.67-18.1,11.61-38,18.85-58.35,25.27-44.08,13.91-89,11.31-134.21,8.6a175.81,175.81,0,0,1-51.92-11c-11.82-4.45-22.83-9.22-29.08-22.1-4-8.32-12.31-14.47-17.83-22.2-3.16-4.42-5.87-9.87-6.61-15.16-2.47-17.58-3.87-35.3-5.82-52.95-2.29-20.65-4.8-41.28-7.07-61.94-2.08-18.95-3.94-37.92-6-56.87-2.33-22-4.79-43.9-7.06-65.87-2.1-20.25-3.92-40.53-6-60.78-2.25-21.54-4.74-43.05-7-64.57-2-18.53-3.76-37.08-5.86-55.59-1.9-16.78-4.2-33.51-6.16-50.28q-3.63-31-7-62c-2.46-22.38-5-44.76-7.15-67.17C1028.52,1922,1029.06,1915.16,1029.06,1907.42Z" transform="translate(-887.31 -315.29)"/><path class="cls-3" d="M2074.92,916c-7.07-3.11-14.39-5.74-21.16-9.4-45.32-24.47-93.14-42.71-142.84-55.61-23.8-6.17-48.36-9.85-72.78-13.1-70.49-9.36-141.4-5.39-212.15-4.83-37.7.29-75.39,3.43-113.09,5.09-23,1-46,1.43-69,2.52-26,1.25-51.93,3.07-77.91,4.4-9.54.49-19.17-.26-28.68.48-20.29,1.57-41,1.73-60.66,6.31a161.4,161.4,0,0,0-48.6,20.6c-23.59,14.88-48.22,26.18-75.76,29.29s-55.08,5.52-83,2.23c-18.13-2.13-36.17-3.79-53.78-8.77-35.81-10.13-68.44-26.7-100.37-48.81,10-13.72,19.07-27.43,29.51-40,12.46-15,25.54-29.56,39.38-43.27,21.24-21,43.22-41.33,65.15-61.65,10.81-10,22.1-19.54,33.38-29,38.46-32.46,77.77-63.75,119.69-91.8,26.66-17.83,51.41-38.53,78-56.57,32.27-21.94,65.24-42.91,98.44-63.45,34.33-21.23,69.22-41.57,104-62.08,28-16.53,56-33.14,84.55-48.81,9.3-5.12,20-8,30.39-10.78,9.77-2.6,10-1.94,15.38,9.73-3.57,3-7.15,6.66-11.35,9.41-23.6,15.46-47.23,30.9-71.08,46-44.39,28.07-89.14,55.58-133.35,83.93-25.91,16.63-51.11,34.37-76.55,51.73-24.71,16.86-49.6,33.48-73.91,50.9-28.21,20.22-56.33,40.62-83.63,62-20.44,16-39.46,33.87-59.22,50.8-9.54,8.17-19.77,15.6-28.85,24.24-16,15.22-31.91,30.64-46.84,46.9-8.42,9.19-15.57,19.79-21.93,30.56-6.64,11.24-4.63,15.84,7.94,20.29a115.07,115.07,0,0,0,23.88,5.39c25.74,3.24,49.65,12.73,73.11,22.64,22.33,9.43,43.38,9.67,66.78,4,44.59-10.76,89.84-18.79,134.86-27.77,23.78-4.75,47.54-9.76,71.49-13.51,30.77-4.81,61.66-9,92.61-12.52,72.31-8.12,144.92-5,217.43-5,49.59,0,98.51,6.61,147.06,16.32,29.72,5.94,59.59,11.15,89.21,17.55,26.27,5.68,52.65,11.37,76.57,24.53a12.74,12.74,0,0,0,3.65,1.39c17.3,3.34,29,14.28,39.27,27.79,7.78,10.26,16.46,19.85,24.74,29.73Z" transform="translate(-887.31 -315.29)"/><path class="cls-4" d="M1076.8,822.52l-13-4.23c11.42-11.26,21.82-22.08,34.15-30.9a83.92,83.92,0,0,0,8.38-6.15c23.36-21.54,48.64-40.67,74.77-58.6q57.42-39.4,115.73-77.52c25.75-16.89,51.92-33.16,78.22-49.2,42.59-26,85.42-51.56,128.19-77.25,20.81-12.51,41.71-24.88,62.57-37.34,39.16-23.4,79.87-43.8,121.47-62.47,6.2-2.79,12.69-4.91,20.45-7.87-1.89,28.09-3.65,54.42-5.44,80.76-.23,3.47-1.21,7-.75,10.37,1.6,11.85-4,17.16-14.67,21.84-43.67,19.09-87,39-130.12,59.29-60,28.25-120.1,56.3-179.42,85.92-74.48,37.18-148.16,76-222.32,113.79-20.84,10.63-42.19,20.24-63.21,30.53C1086.83,815.9,1082.31,819.17,1076.8,822.52Z" transform="translate(-887.31 -315.29)"/><path class="cls-5" d="M1328.33,803.48c46.82-14.26,93.23-30,140.53-42.44,93.13-24.42,186.47-48.14,280.27-69.82,50.64-11.7,102.39-18.64,153.67-27.58,4.64-.81,9.46-.56,14.78-.84,3.72,48.3-3.56,96.62,4.75,145.11a39.72,39.72,0,0,1-6.62,0c-52.66-8.58-105.15-18.3-158-25.43-27.88-3.75-56.39-4.38-84.58-4q-93.84,1.25-187.63,5.15c-42.56,1.84-84.41,10.08-126.06,18.9-7.61,1.61-15.32,2.76-23,4.12Z" transform="translate(-887.31 -315.29)"/><path class="cls-6" d="M1775.62,514.58c-1.09,27.27-2.15,53.6-3.25,81-3.33,1.11-7.27,2.72-11.36,3.75-49.22,12.43-97.54,27.79-145.6,44.09-67.74,23-135.45,46.1-203.67,67.59-55.44,17.46-110.48,35.84-163.67,59.3-23.79,10.49-47,22.34-70.41,33.62-14.46,7-29,13.8-43.24,21.13-5.54,2.85-10.46,6.88-16.83,11.16l-23.52-7.69c3.41-1.69,5.7-2.88,8-4,21.29-9.76,42.86-19,63.82-29.36,57.52-28.52,114.49-58.18,172.24-86.2,55.41-26.89,111.52-52.34,167.36-78.33,45.22-21.06,90.14-42.79,135.85-62.72,41.32-18,83.51-34,125.34-50.87C1769.05,516.15,1771.59,515.7,1775.62,514.58Z" transform="translate(-887.31 -315.29)"/><path class="cls-7" d="M1133.68,841.91c53.41-24.42,104.23-48.87,156-71,45.48-19.4,93.23-32.72,140.34-47.71,52.49-16.71,104.48-35,157-51.43,67.89-21.22,136.1-41.43,204.26-61.78,12.82-3.83,26.08-6.22,39.8-9.43v52.64c-3.83.91-8.68,2.23-13.6,3.19-85.22,16.63-168.94,39.29-252.6,62.26-53.93,14.8-108.12,28.66-161.94,43.85-28.77,8.12-57,18.18-85.47,27.34-42.9,13.82-85.77,27.77-128.75,41.36-14.81,4.68-29.88,8.58-44.93,12.44C1141.48,844.29,1138.53,842.82,1133.68,841.91Z" transform="translate(-887.31 -315.29)"/><path class="cls-8" d="M1030.16,810.1c9.78-8.42,19.36-15.89,28-24.3,57.56-55.72,120.16-105.35,185.26-151.78,46.27-33,93.1-65.28,140.79-96.16,53.16-34.44,107.42-67.19,161.51-100.17,33-20.1,66.49-39.26,99.8-58.78,3.58-2.09,7.41-3.77,12.54-6.35-1.52,12.5-2.82,23.17-4.18,34.37-66.27,32.65-130.1,70.4-193.32,109.2-29.19,17.92-57.92,36.6-86.79,55q-63.06,40.3-126,80.8c-17.86,11.55-35.85,23-52.89,35.67-29.24,21.75-58.16,44-86.49,66.89-20.55,16.63-39.77,34.88-60,52C1044.1,810.21,1039.71,817.5,1030.16,810.1Z" transform="translate(-887.31 -315.29)"/><path class="cls-9" d="M1328.33,803.48l8.12,3.12-26,5.49-2.57-2.77Z" transform="translate(-887.31 -315.29)"/><path class="cls-10" d="M1307.93,809.32l2.57,2.77-13.71,2.83c-.18-.84-.37-1.69-.56-2.53Z" transform="translate(-887.31 -315.29)"/><path class="cls-11" d="M1632.18,363.89l-2.75,1.52c.09-1.24.17-2.49.26-3.74Z" transform="translate(-887.31 -315.29)"/><path class="cls-3" d="M2074.86,916.1l1,1.21c-.25-.08-.62-.09-.73-.26a3.56,3.56,0,0,1-.25-1Z" transform="translate(-887.31 -315.29)"/><path class="cls-12" d="M1511.76,1482.41c-2-13.08-5-25.24-5.62-37.53-1.54-31.6-2.83-63.26-2.68-94.88a626.2,626.2,0,0,0-5.85-85.5c-1.23-9.31,2.79-15.39,11.17-17.19,21.13-4.53,42.27-9,63.39-13.7,36-7.92,71.49-5.82,106.48,5.2,12.8,4,25.7,8.14,37.84,13.76,30.87,14.29,48.46,38.79,55.71,72.13,9.67,44.47-10.09,75.5-43.34,100.85-23,17.54-50.42,24.47-78.13,30.26q-61,12.75-122,25.27C1523.76,1482.09,1518.56,1481.91,1511.76,1482.41Zm11.63-21.87,128.42-25.39c24-4.75,47.18-11.57,67.92-25,20.42-13.25,44.76-45,36.58-76.32-1.85-7.11-4.54-14-6.82-21-6.58-20.22-19.6-35-39.31-42.57-19.39-7.4-39.2-14.23-59.37-19-19.87-4.64-40.46-5.76-60.83-1.45-18.24,3.86-36.45,7.84-54.68,11.75-5.74,1.24-11.49,2.45-17.38,3.7C1525,1331,1524,1395.42,1523.39,1460.54Z" transform="translate(-887.31 -315.29)"/><path class="cls-13" d="M1523.39,1460.54c.62-65.12,1.57-129.57-5.47-195.24,5.89-1.25,11.64-2.46,17.38-3.7,18.23-3.91,36.44-7.89,54.68-11.75,20.37-4.31,41-3.19,60.83,1.45,20.17,4.72,40,11.55,59.37,19,19.71,7.52,32.73,22.35,39.31,42.57,2.28,7,5,13.88,6.82,21,8.18,31.37-16.16,63.07-36.58,76.32-20.74,13.45-44,20.27-67.92,25Z" transform="translate(-887.31 -315.29)"/></svg>